# xmcd CD database file
#
# Track frame offsets:
#	150
#	21657
#	41899
#	57153
#	77691
#	99293
#	120592
#	138051
#	161869
#	181713
#	202422
#
# Disc length: 3129 seconds
#
# Revision: 0
# Processed by: cddbd v1.5PL3 Copyright (c) Steve Scherf et al.
# Submitted via: CDex 1.51
#
DISCID=950c370b
DTITLE=Mike Zito - America's Most Wanted
DYEAR=2000
DGENRE=Blues
TTITLE0=America's Most Wanted
TTITLE1=Crazy People
TTITLE2=Deal Me In
TTITLE3=Rocket Man
TTITLE4=Devil Woman
TTITLE5=You Don't Know Me
TTITLE6=Head Rush
TTITLE7=Tug of War
TTITLE8=1000 Ways to Die
TTITLE9=Troubles, Lies and Mysteries
TTITLE10=I could make you feel good
EXTD=YEAR: 2000
EXTT0=
EXTT1=
EXTT2=
EXTT3=
EXTT4=
EXTT5=
EXTT6=
EXTT7=
EXTT8=
EXTT9=
EXTT10=
PLAYORDER=
